<?xml version="1.0" encoding="UTF-8"?><svg id="uuid-751de076-f333-4b13-b3b7-4454ff812c6b" xmlns="http://www.w3.org/2000/svg" viewBox="0 0 502.69 145.59"><path d="m409.33,69.66v8.05c-.09.38-.22.76-.26,1.15-.74,8.75-3.36,16.92-7.87,24.44-8.35,13.92-20.65,22.94-35.83,28.12-18.57,6.34-37.46,6.63-56.49,2.24-1.1-.25-1.76,0-2.63.68-2.98,2.3-5.94,4.69-9.18,6.57-8.96,5.2-18.88,4.84-28.76,4.51-.03,0-.05-.07-.14-.21.3-.33.61-.69.95-1.02,2.14-2.15,4.3-4.28,6.44-6.44,3.7-3.75,5.96-8.26,7.04-13.39.26-1.24.03-1.99-1.14-2.8-11.52-7.94-19.82-18.29-23.42-31.99-.79-3-1.15-6.12-1.7-9.18,0-2.59,0-5.17,0-7.76.08-.28.22-.55.25-.83.91-10.38,4.51-19.8,10.39-28.34,10.63-15.42,25.43-24.85,43.38-29.58,12.6-3.32,25.38-3.51,38.22-1.74,12.79,1.77,24.76,5.85,35.33,13.42,12.86,9.22,21.21,21.45,24.32,37.06.46,2.32.75,4.68,1.11,7.02Z" style="fill:#00acee;"/><path d="m60.04,92.62H25.15l-9.61,20.96H0L35.9,38.63h14.37l35.73,74.94h-16.39l-9.57-20.96Zm-17.52-39.37l-11.75,27.13h23.98l-12.23-27.13Z" style="fill:#eb1d24;"/><path d="m102.19,88.06c.05,2.18.4,4.08,1.03,5.69.63,1.62,1.48,2.99,2.54,4.12,1.06,1.13,2.3,2.05,3.71,2.77,1.41.71,2.93,1.27,4.56,1.66,1.63.39,3.33.66,5.11.81,1.78.15,3.57.22,5.37.22,2.85,0,5.44-.24,7.77-.71,2.33-.47,4.31-1.17,5.96-2.1,1.64-.93,2.91-2.07,3.8-3.41.89-1.35,1.33-2.89,1.33-4.64,0-1.4-.32-2.62-.95-3.65-.63-1.04-1.52-1.92-2.66-2.67-1.14-.74-2.52-1.37-4.12-1.88-1.6-.51-3.37-.93-5.31-1.25l-16.39-2.62c-1.59-.24-3.28-.57-5.09-.97-1.8-.4-3.59-.94-5.37-1.59-1.78-.66-3.48-1.49-5.11-2.5-1.63-1.01-3.07-2.22-4.32-3.63-1.25-1.41-2.25-3.08-2.99-4.99-.74-1.91-1.11-4.12-1.11-6.62,0-3.5.69-6.68,2.06-9.53,1.37-2.85,3.39-5.3,6.06-7.33,2.66-2.03,5.96-3.6,9.89-4.7,3.93-1.1,8.47-1.66,13.61-1.66,2.67,0,5.31.16,7.93.46,2.62.31,5.14.83,7.55,1.55,2.41.73,4.65,1.7,6.72,2.91,2.07,1.21,3.9,2.72,5.49,4.52,1.59,1.8,2.88,3.94,3.88,6.4,1,2.46,1.6,5.3,1.82,8.5h-14.21c-.19-.94-.44-1.9-.75-2.87-.31-.97-.75-1.91-1.31-2.83-.56-.92-1.32-1.78-2.26-2.58-.94-.81-2.15-1.51-3.61-2.1-1.47-.59-3.24-1.06-5.33-1.41-2.09-.35-4.56-.52-7.41-.52-1.94,0-3.86.2-5.75.61-1.9.4-3.59,1.03-5.09,1.88-1.49.85-2.71,1.94-3.63,3.27s-1.39,2.93-1.39,4.78c0,.89.18,1.74.54,2.56.36.82.97,1.58,1.82,2.28.85.7,1.98,1.32,3.41,1.86,1.43.54,3.19.97,5.29,1.29l18.21,2.91c1.05.16,2.38.4,3.98.73,1.6.32,3.3.79,5.11,1.39,1.8.61,3.61,1.39,5.41,2.34,1.8.96,3.43,2.15,4.89,3.57,1.45,1.43,2.64,3.12,3.55,5.09.91,1.97,1.37,4.25,1.37,6.86,0,3.26-.47,6.14-1.41,8.64-.94,2.5-2.23,4.68-3.86,6.54-1.63,1.86-3.55,3.41-5.75,4.66-2.21,1.25-4.58,2.26-7.11,3.03-2.53.77-5.15,1.32-7.87,1.66-2.72.34-5.41.5-8.08.5-2.96,0-5.91-.16-8.84-.48-2.93-.32-5.72-.88-8.36-1.68-2.64-.79-5.09-1.86-7.35-3.21-2.26-1.35-4.22-3.03-5.87-5.05-1.66-2.02-2.95-4.41-3.9-7.19-.94-2.77-1.41-6-1.41-9.69h14.21Z" style="fill:#eb1d24;"/><path d="m192.6,78.61l-11.99,11.06v23.9h-14.41V38.63h14.41v34.44l38.84-34.44h18.77l-35.29,31.21,37.19,43.73h-17.85l-29.68-34.97Z" style="fill:#eb1d24;"/><path d="m328.56,51.96h11.86v43.33h-10.04v-26.99l-13.66,26.99h-7.94l-13.59-26.41v26.41h-10.04v-43.33h11.86l15.78,30.82,15.76-30.82Z" style="fill:#fff;"/><path d="m348.08,51.96h37.78v8.54h-27.74v8.29h26.55v8.45h-26.55v9.39h28.2v8.66h-38.24v-43.33Z" style="fill:#fff;"/><path d="m474.86,17h-27.4c-6.24,0-10.87,3.66-13.13,10.25-2.24,6.59-.1,10.26,6.13,10.26h14.9l-.03-.02s.14.02.37.02h.09c.78,0,2.37-.29,3.09-2.34h.01s3.04-8.88,3.04-8.88c.22-1.01-.67-1.13-1.04-1.13h-.02c-.08,0-.13,0-.13,0h0s-12.52,0-12.52,0l-1.42,4.11h5.1l-1.33,3.87h-4.14c-3.32,0-4.08-2.16-2.81-5.88.6-1.78,1.44-3.2,2.5-4.2.68-.65,1.47-1.11,2.35-1.39.6-.19,1.26-.29,1.96-.29h13.84l.04-.06c.08-.11.25-.32.58-.65.82-.87,1.73-1.59,2.73-2.16,0,0,0,0,0,0h0s.04-.02.07-.03v.02l2.4-.02s-.04.02-.07.04h0s0,0,0,0c-1,.57-1.91,1.3-2.73,2.16-.33.33-.5.54-.58.65l-.04.06c-1.27,1.56-2.3,3.5-3.06,5.81-2.18,6.62.05,10.28,6.36,10.28h8.43-.01s3.48,0,3.58,0h1.3c.61-.01,1.95-.23,2.51-1.9l.85-2.48h-10.82c-1,0-1.77-.2-2.33-.57-1.3-.87-1.44-2.71-.59-5.32,1.24-3.73,3.46-5.89,6.81-5.89h11.01l1.49-4.31-17.33.02Z" style="fill:#035ba9;"/><path d="m421.62,10.54c-1.2,2.89-1.89,4.61-1.66,7.07.25,2.62,2.04,4.73,3.68,6.49,1.32,1.42,2.13,2.31,2.49,3.94.26,1.13.55,3.52-1.15,5.82-2.03,2.75-5.32,2.85-5.32,2.85v.83s3.92-.16,6.58-2.56c1.84-1.67,2.5-3.12,2.98-5.36.41-1.9-.08-4.62-1.28-6.71-.67-1.17-1.4-2.15-2.11-2.97-1.39-1.61-2.39-2.69-3.27-3.97-.82-1.19-1.33-2.2-1.33-3.24s.41-2.08.41-2.08l-.03-.09Z" style="fill:#00adee;"/><path d="m416.88,10.54c1.2,2.89,1.89,4.61,1.66,7.07-.24,2.62-2.04,4.73-3.68,6.49-1.32,1.42-2.13,2.31-2.5,3.94-.25,1.13-.55,3.52,1.16,5.82,2.03,2.75,5.32,2.85,5.32,2.85v.83s-3.92-.16-6.59-2.56c-1.84-1.67-2.49-3.12-2.98-5.36-.41-1.9.09-4.62,1.28-6.71.67-1.17,1.41-2.15,2.11-2.97,1.39-1.61,2.39-2.69,3.27-3.97.82-1.19,1.33-2.2,1.33-3.24s-.41-2.08-.41-2.08l.03-.09Z" style="fill:#00adee;"/><path d="m420.53,21.34c.57.93,2.02,2.7,3.2,3.82,1.21,1.16,1.95,2.79,1.95,4.59,0,3.53-2.88,6.39-6.42,6.39s-6.42-2.86-6.42-6.39c0-1.77.72-3.37,1.88-4.52.56-.56,2.27-2.32,3.24-3.88,1.03-1.66,1.3-3.12,1.3-3.12,0,0,.26,1.46,1.28,3.12" style="fill:#1b1464;"/><path d="m424.5,29.75c0,2.88-2.35,5.22-5.25,5.22s-5.24-2.34-5.24-5.22,2.35-5.22,5.24-5.22,5.25,2.34,5.25,5.22" style="fill:#ec1c24;"/><path d="m408.8,29.75c0,2.88-2.35,5.22-5.25,5.22s-5.24-2.34-5.24-5.22,2.35-5.22,5.24-5.22,5.25,2.34,5.25,5.22" style="fill:none; opacity:.15;"/><path d="m502.69,24.7c0,2.88-2.35,5.22-5.25,5.22s-5.24-2.34-5.24-5.22,2.35-5.22,5.24-5.22,5.25,2.34,5.25,5.22" style="fill:none; opacity:.15;"/><path d="m455.44,5.22c0,2.88-2.35,5.22-5.25,5.22s-5.24-2.34-5.24-5.22,2.35-5.22,5.24-5.22,5.25,2.34,5.25,5.22" style="fill:none; opacity:.15;"/><path d="m455.44,42.8c0,2.88-2.35,5.22-5.25,5.22s-5.24-2.34-5.24-5.22,2.35-5.22,5.24-5.22,5.25,2.34,5.25,5.22" style="fill:none; opacity:.15;"/></svg>