<?xml version="1.0" encoding="UTF-8"?><svg id="uuid-f60b7f94-92ab-44d3-b1b6-ddf792d5748a" xmlns="http://www.w3.org/2000/svg" xmlns:xlink="http://www.w3.org/1999/xlink" viewBox="0 0 188.07 158.36"><defs><clipPath id="uuid-65cc579e-c255-4cd0-9fca-5fc6acb61a4d"><polygon points="57.65 116.01 57.65 41.12 113.18 41.12 113.18 53.79 72.77 53.79 72.77 70.39 110.37 70.39 110.37 83.01 72.77 83.01 72.77 103.39 114.61 103.39 114.61 116.01 57.65 116.01" style="fill:none;"/></clipPath><linearGradient id="uuid-2f1e609a-b23e-44c7-bd3c-0aa518f2262c" x1="-917.87" y1="499.98" x2="-917.53" y2="499.98" gradientTransform="translate(156055.49 85053.85) scale(169.96 -169.96)" gradientUnits="userSpaceOnUse"><stop offset="0" stop-color="#29abe2"/><stop offset="1" stop-color="#fff"/></linearGradient><clipPath id="uuid-8f8a43fc-94df-45f3-abd3-ff77cadb2ac4"><path d="m0,.12c64.7,2.24,116.09,36.78,116.09,79.06S64.7,156,0,158.24c2.21.08,4.44.12,6.69.12,60.24,0,110.34-27.98,120.78-64.88,8.89,14.8,31.17,25.29,57.26,25.29,1.12,0,2.24-.02,3.34-.06-32.35-1.12-58.05-18.39-58.05-39.53s25.7-38.41,58.05-39.53c-1.11-.04-2.22-.06-3.34-.06-26.09,0-48.37,10.5-57.26,25.3C117.03,27.98,66.93,0,6.69,0,4.44,0,2.21.04,0,.12" style="fill:none;"/></clipPath><linearGradient id="uuid-847541b2-17cc-4b3c-b421-f1a2ec914dda" x1="-920.38" y1="499.88" x2="-920.04" y2="499.88" gradientTransform="translate(516530.09 280621.5) scale(561.22 -561.22)" xlink:href="#uuid-2f1e609a-b23e-44c7-bd3c-0aa518f2262c"/><clipPath id="uuid-20585e6c-5ca5-4913-a3c7-71bfb29c055b"><path d="m42.49,41.12v47.82c0,7.51-6.09,13.6-13.6,13.6s-13.6-6.09-13.6-13.6,6.09-13.6,13.6-13.6c3.93,0,7.47,1.67,9.96,4.34v-15.91c-3.08-1.22-6.44-1.89-9.96-1.89-14.95,0-27.07,12.12-27.07,27.07s12.12,27.07,27.07,27.07,27.06-12.12,27.06-27.07v-47.82h-13.46Z" style="fill:none;"/></clipPath><linearGradient id="uuid-6bf65fed-e4ab-4dc4-8316-385cf19d002b" x1="-919.63" y1="497.78" x2="-919.29" y2="497.78" gradientTransform="translate(234843.41 127200.87) scale(255.38 -255.38)" gradientUnits="userSpaceOnUse"><stop offset="0" stop-color="#272361"/><stop offset=".2" stop-color="#29abe2"/><stop offset="1" stop-color="#272361"/></linearGradient></defs><g style="clip-path:url(#uuid-65cc579e-c255-4cd0-9fca-5fc6acb61a4d); fill:none;"><rect x="57.65" y="41.12" width="56.96" height="74.89" style="fill:url(#uuid-2f1e609a-b23e-44c7-bd3c-0aa518f2262c);"/></g><g style="clip-path:url(#uuid-8f8a43fc-94df-45f3-abd3-ff77cadb2ac4); fill:none;"><rect width="188.07" height="158.36" style="fill:url(#uuid-847541b2-17cc-4b3c-b421-f1a2ec914dda);"/></g><g style="clip-path:url(#uuid-20585e6c-5ca5-4913-a3c7-71bfb29c055b); fill:none;"><rect x="-17.25" y="34.02" width="92.28" height="89.09" transform="translate(-50.46 51.91) rotate(-51.24)" style="fill:url(#uuid-6bf65fed-e4ab-4dc4-8316-385cf19d002b);"/></g><path d="m40.03,88.93c0,6.07-4.92,10.98-10.98,10.98s-10.98-4.92-10.98-10.98,4.92-10.98,10.98-10.98,10.98,4.92,10.98,10.98" style="fill:#eb2227;"/></svg>