<?xml version="1.0" encoding="UTF-8"?><svg id="uuid-58fa23ef-dd82-41f1-959a-764f0524bce5" xmlns="http://www.w3.org/2000/svg" viewBox="0 0 188.06 158.36"><path d="m72.76,103.38v-20.38h37.59v-12.61h-37.59v-16.61h35.31c-2.37-4.38-5.34-8.61-8.9-12.66h-41.54v74.88h42.6c3.39-4.04,6.22-8.26,8.45-12.62h-35.93Z" style="fill:#fff;"/><path d="m130.02,79.18c0-21.15,25.7-38.41,58.04-39.53-1.11-.04-2.22-.06-3.33-.06-26.1,0-48.38,10.5-57.27,25.3C117.02,27.98,66.92,0,6.69,0,4.44,0,2.21.05,0,.13c43.59,1.5,81.13,17.67,100.99,41,3.43,4.02,6.32,8.25,8.63,12.66,4.19,7.98,6.46,16.51,6.46,25.39s-2.06,16.58-5.86,24.2c-2.19,4.39-4.94,8.61-8.21,12.62-19.58,23.98-57.67,40.7-102.02,42.22,2.21.08,4.44.13,6.69.13,60.24,0,110.33-27.99,120.78-64.89,8.89,14.8,31.16,25.3,57.27,25.3,1.11,0,2.22-.02,3.33-.06-32.35-1.12-58.04-18.38-58.04-39.53Z" style="fill:#fff;"/><path d="m42.49,41.13v47.81c0,7.52-6.09,13.61-13.6,13.61s-13.61-6.09-13.61-13.61,6.1-13.59,13.61-13.59c3.94,0,7.47,1.66,9.95,4.33v-15.91c-3.09-1.22-6.44-1.9-9.95-1.9-14.95,0-27.07,12.12-27.07,27.06s12.12,27.07,27.07,27.07,27.06-12.12,27.06-27.07v-47.81h-13.45Z" style="fill:#fff;"/><path d="m40.02,88.92c0,6.07-4.91,10.99-10.98,10.99s-10.98-4.91-10.98-10.99,4.91-10.98,10.98-10.98,10.98,4.92,10.98,10.98" style="fill:#fff;"/></svg>